# xmcd CD database file
#
# Track frame offsets:
#	150
#	56785
#	96601
#	127327
#	168808
#
# Disc length: 3078 seconds
#
# Revision: 0
# Processed by: cddbd v1.5.1PL0 Copyright (c) Steve Scherf et al.
# Submitted via: CDex 1.51
#
DISCID=480c0405
DTITLE=Joe Bonamassa - Milwaukee, Wi. 7.28.04
DYEAR=2004
DGENRE=Blues
TTITLE0=Wild About You Baby...Burning Hell
TTITLE1=Takin' The Hit
TTITLE2=You Upset Me Baby
TTITLE3=Blues Deluxe
TTITLE4=Had To Cry Today
EXTD=YEAR: 2004
EXTT0=
EXTT1=
EXTT2=
EXTT3=
EXTT4=
PLAYORDER=
